<svg width="21" height="21" viewBox="0 0 21 21" fill="none" xmlns="http://www.w3.org/2000/svg">
<path d="M15.8542 20.1355H5.14586C2.78128 20.1355 0.864624 18.2188 0.864624 15.8542V5.14587C0.864624 2.78129 2.78128 0.864624 5.14586 0.864624H15.8542C18.2188 0.864624 20.1355 2.78129 20.1355 5.14587V15.8542C20.1355 18.2188 18.2188 20.1355 15.8542 20.1355Z" stroke="white" stroke-width="1.5" stroke-linecap="round" stroke-linejoin="round"/>
<path d="M10.5 14.2189C12.5538 14.2189 14.2188 12.5539 14.2188 10.5001C14.2188 8.44631 12.5538 6.78137 10.5 6.78137C8.4462 6.78137 6.78125 8.44631 6.78125 10.5001C6.78125 12.5539 8.4462 14.2189 10.5 14.2189Z" stroke="white" stroke-width="1.5" stroke-linecap="round" stroke-linejoin="round"/>
<path d="M15.8648 6.25008C16.4573 6.25008 16.9377 5.76972 16.9377 5.17716C16.9377 4.58461 16.4573 4.10425 15.8648 4.10425C15.2722 4.10425 14.7919 4.58461 14.7919 5.17716C14.7919 5.76972 15.2722 6.25008 15.8648 6.25008Z" fill="white"/>
</svg>
