<svg width="21" height="19" viewBox="0 0 21 19" fill="none" xmlns="http://www.w3.org/2000/svg">
<path fill-rule="evenodd" clip-rule="evenodd" d="M19.1183 0.0439412C19.0121 0.0668799 18.8032 0.13462 18.6541 0.194459C18.1837 0.383293 13.778 2.24731 5.21581 5.88016C4.13261 6.33975 2.7969 6.90501 2.24756 7.1363C0.959003 7.67881 0.723934 7.79866 0.457608 8.04903C0.29178 8.2049 0.226141 8.29258 0.131917 8.48393C0.0262417 8.6986 0.0126805 8.74963 0.00210176 8.97245C-0.00439743 9.10931 0.00469027 9.28886 0.0222747 9.3715C0.123083 9.8446 0.530703 10.3072 1.0689 10.5593C1.16782 10.6056 2.13381 10.9429 3.21555 11.3089C4.29728 11.6748 5.19153 11.9844 5.20278 11.9967C5.21403 12.0091 5.30204 12.2805 5.3984 12.5998C6.24746 15.4139 6.71439 16.9196 6.80935 17.1497C6.98443 17.574 7.25067 17.9182 7.49635 18.0379C7.56112 18.0695 7.70753 18.115 7.82173 18.1391C8.08178 18.1941 8.35483 18.1603 8.61663 18.0408C8.80089 17.9567 8.95003 17.8263 10.5615 16.3403C10.8864 16.0407 11.1671 15.7892 11.1851 15.7814C11.2032 15.7737 12.0991 16.4479 13.1761 17.2798C15.0351 18.7157 15.1452 18.796 15.3518 18.8661C15.6466 18.9662 15.829 19 16.0748 19C16.8499 19 17.4818 18.615 17.8177 17.938C17.9014 17.7695 17.9397 17.6168 18.0735 16.9185C18.1999 16.2592 19.109 11.5678 19.7199 8.42268C19.7835 8.09559 19.891 7.54124 19.9589 7.19078C20.0268 6.84033 20.1468 6.22226 20.2256 5.81729C20.3044 5.41232 20.412 4.85797 20.4647 4.58539C20.6035 3.86781 20.7775 2.97603 20.893 2.39063C21.0248 1.7221 21.0342 1.30846 20.9248 1.00009C20.6552 0.240676 19.9459 -0.134698 19.1183 0.0439412ZM19.3689 1.73221C19.3612 1.76727 19.2539 2.31842 19.1303 2.95702C18.0972 8.29694 17.7542 10.0675 17.2269 12.7839C16.8943 14.4972 16.5642 16.1985 16.4934 16.5645C16.3817 17.1413 16.3549 17.2404 16.2923 17.3079C16.2463 17.3576 16.1912 17.3858 16.1401 17.3858C15.9602 17.3858 16.0453 17.4477 13.164 15.2194C11.3976 13.8534 11.1609 13.6721 11.1273 13.6591C11.1101 13.6525 10.4743 14.2175 9.71446 14.9147C8.95462 15.6118 8.30405 16.2077 8.2688 16.2389L8.20471 16.2955L8.22161 16.2389C8.23093 16.2077 8.37186 15.3286 8.53481 14.2853L8.8311 12.3883L8.93664 12.2857C8.99468 12.2293 9.60558 11.6554 10.2942 11.0104C10.9828 10.3655 12.2994 9.13067 13.2199 8.26647C14.1405 7.40227 15.2863 6.32845 15.7662 5.88021C16.246 5.43197 16.6929 5.0009 16.7591 4.92228C16.8677 4.79337 16.8777 4.76913 16.8609 4.67528C16.8351 4.53071 16.8031 4.50043 16.6765 4.50043C16.4862 4.50043 17.1313 4.10846 9.88622 8.62618C8.46259 9.51389 7.13138 10.3442 6.92796 10.4713C6.72458 10.5984 6.54434 10.7024 6.52746 10.7024C6.51058 10.7024 5.94901 10.5165 5.27953 10.2893C4.61003 10.0621 3.55719 9.70552 2.93988 9.49701C2.32257 9.28846 1.81265 9.11297 1.80671 9.10699C1.80078 9.10104 1.93236 9.03854 2.09912 8.96817C2.5589 8.77407 4.2328 8.06486 5.24394 7.63574C7.32385 6.75305 16.3836 2.91418 17.342 2.50943C17.9146 2.26764 18.5919 1.98079 18.8472 1.87202C19.1026 1.76322 19.3275 1.6729 19.3472 1.67135C19.37 1.66951 19.3778 1.69148 19.3689 1.73221Z" fill="white"/>
</svg>
