<svg width="19" height="17" viewBox="0 0 19 17" fill="none" xmlns="http://www.w3.org/2000/svg">
<path fill-rule="evenodd" clip-rule="evenodd" d="M17.1059 0.0393158C17.0108 0.0598399 16.8239 0.120449 16.6905 0.17399C16.2696 0.342947 12.3277 2.01075 4.66677 5.26119C3.6976 5.67241 2.50249 6.17817 2.01097 6.38511C0.858055 6.87052 0.647731 6.97775 0.409439 7.20177C0.261066 7.34123 0.202337 7.41968 0.118031 7.59089C0.0234794 7.78295 0.0113457 7.82861 0.00188052 8.02798C-0.00393455 8.15044 0.00419655 8.31108 0.01993 8.38502C0.110126 8.80833 0.47484 9.22223 0.956383 9.44777C1.04489 9.48922 1.9092 9.79103 2.87707 10.1185C3.84494 10.4459 4.64505 10.7229 4.65512 10.7339C4.66519 10.745 4.74393 10.9878 4.83015 11.2735C5.58983 13.7914 6.00761 15.1386 6.09257 15.3445C6.24923 15.7241 6.48744 16.0321 6.70726 16.1392C6.76521 16.1674 6.89621 16.2082 6.99839 16.2298C7.23107 16.2789 7.47538 16.2487 7.70962 16.1418C7.87448 16.0665 8.00792 15.9498 9.44973 14.6203C9.74049 14.3522 9.99159 14.1271 10.0078 14.1202C10.0239 14.1133 10.8255 14.7166 11.7891 15.4609C13.4524 16.7456 13.5509 16.8174 13.7358 16.8802C13.9996 16.9698 14.1628 17 14.3827 17C15.0762 17 15.6416 16.6555 15.9422 16.0498C16.017 15.899 16.0513 15.7624 16.171 15.1376C16.2841 14.5477 17.0976 10.3501 17.6441 7.53608C17.701 7.24342 17.7972 6.74742 17.8579 6.43386C17.9187 6.1203 18.0261 5.56728 18.0966 5.20494C18.1671 4.8426 18.2634 4.3466 18.3105 4.10272C18.4347 3.46067 18.5904 2.66276 18.6937 2.13899C18.8116 1.54082 18.8201 1.17073 18.7221 0.894818C18.4809 0.215342 17.8464 -0.120519 17.1059 0.0393158ZM17.3301 1.54987C17.3232 1.58124 17.2271 2.07437 17.1166 2.64576C16.1922 7.42358 15.8853 9.00779 15.4136 11.4382C15.116 12.9712 14.8206 14.4934 14.7572 14.8209C14.6573 15.337 14.6334 15.4256 14.5774 15.486C14.5362 15.5305 14.4868 15.5557 14.4412 15.5557C14.2802 15.5557 14.3563 15.6111 11.7783 13.6174C10.1979 12.3952 9.9861 12.2329 9.95605 12.2213C9.94064 12.2154 9.37177 12.7209 8.69188 13.3447C8.01202 13.9685 7.42994 14.5016 7.3984 14.5295L7.34105 14.5802L7.35618 14.5295C7.36451 14.5016 7.49061 13.715 7.63641 12.7816L7.90151 11.0843L7.99594 10.9925C8.04787 10.942 8.59446 10.4285 9.21058 9.85144C9.8267 9.27435 11.0047 8.16954 11.8284 7.39632C12.652 6.62309 13.6772 5.6623 14.1066 5.26124C14.5359 4.86019 14.9357 4.47449 14.995 4.40415C15.0922 4.28881 15.1011 4.26712 15.0861 4.18314C15.063 4.05379 15.0344 4.0267 14.9211 4.0267C14.7508 4.0267 15.328 3.67599 8.84557 7.71816C7.57179 8.51242 6.38071 9.25532 6.19871 9.36907C6.01673 9.48279 5.85546 9.57583 5.84036 9.57583C5.82526 9.57583 5.32279 9.40948 4.72379 9.20619C4.12476 9.0029 3.18275 8.68389 2.63042 8.49732C2.07809 8.31073 1.62184 8.15371 1.61653 8.14836C1.61122 8.14304 1.72896 8.08712 1.87816 8.02415C2.28954 7.85048 3.78724 7.21593 4.69195 6.83198C6.55292 6.0422 14.659 2.60742 15.5165 2.24528C16.0288 2.02894 16.6349 1.77229 16.8633 1.67496C17.0918 1.57761 17.2931 1.49681 17.3106 1.49542C17.331 1.49377 17.3381 1.51343 17.3301 1.54987Z" fill="#252B42"/>
</svg>
